<?xml version="1.0" encoding="utf-8"?>
<!-- Generator: Adobe Illustrator 27.2.0, SVG Export Plug-In . SVG Version: 6.00 Build 0)  -->
<svg version="1.1" id="Layer_1" xmlns="http://www.w3.org/2000/svg" xmlns:xlink="http://www.w3.org/1999/xlink" x="0px" y="0px"
	 viewBox="0 0 190.8 20" style="enable-background:new 0 0 190.8 20;" xml:space="preserve">
<style type="text/css">
	.st0{fill:#FFFFFF;filter:url(#Adobe_OpacityMaskFilter);}
	.st1{mask:url(#a_00000116958059847425983390000008109971355164483465_);}
	.st2{fill:#555555;}
	.st3{fill:#007EC6;}
	.st4{fill:url(#SVGID_1_);}
	.st5{enable-background:new    ;}
	.st6{fill:#010101;}
	.st7{font-family:'Verdana';}
	.st8{font-size:11px;}
	.st9{fill:#FFFFFF;}
</style>
<defs>
	<filter id="Adobe_OpacityMaskFilter" filterUnits="userSpaceOnUse" x="0" y="0" width="190.8" height="20">
		<feColorMatrix  type="matrix" values="1 0 0 0 0  0 1 0 0 0  0 0 1 0 0  0 0 0 1 0"/>
	</filter>
</defs>
<mask maskUnits="userSpaceOnUse" x="0" y="0" width="190.8" height="20" id="a_00000116958059847425983390000008109971355164483465_">
	<path class="st0" d="M3,0h184.8c1.7,0,3,1.3,3,3v14c0,1.7-1.3,3-3,3H3c-1.7,0-3-1.3-3-3V3C0,1.3,1.3,0,3,0z"/>
</mask>
<g class="st1">
	<path class="st2" d="M0,0h31.4v20H0V0z"/>
	<path class="st3" d="M31.4,0h159.5v20H31.4V0z"/>
	
		<linearGradient id="SVGID_1_" gradientUnits="userSpaceOnUse" x1="-858.9727" y1="524.55" x2="-858.9727" y2="523.55" gradientTransform="matrix(190.8438 0 0 -20 164025 10491)">
		<stop  offset="0" style="stop-color:#BBBBBB;stop-opacity:0.1"/>
		<stop  offset="1" style="stop-color:#000000;stop-opacity:0.1"/>
	</linearGradient>
	<path class="st4" d="M0,0h190.8v20H0V0z"/>
</g>
<g>
	<g class="st5">
		<text transform="matrix(1 0 0 1 5.3057 15)" class="st6 st7 st8">DOI</text>
	</g>
	<text transform="matrix(1 0 0 1 5.3057 14)" class="st9 st7 st8">DOI</text>
	<g id="_x31_0.25663_x2F_brainlife.pub.13_00000116231940299253165860000000322669075683486849_" class="st5">
		<text transform="matrix(1 0 0 1 35.4946 15)" class="st6 st7 st8">10.25663/brainlife.pub.13</text>
	</g>
	<text id="_x31_0.25663_x2F_brainlife.pub.13" transform="matrix(1 0 0 1 35.4946 14)" class="st9 st7 st8">10.25663/brainlife.pub.13</text>
</g>
</svg>
